name rise31.4854peak64.571fall78.6902.mot
datacolumns 19
datarows 32
range 17.20326600000000 17.25493700000000
endheader
time	ground_force1_vx	ground_force1_vy	ground_force1_vz	ground_force1_px	ground_force1_py	ground_force1_pz	ground_force2_vx	ground_force2_vy	ground_force2_vz	ground_force2_px	ground_force2_py	ground_force2_pz	ground_torque1_x	ground_torque1_y	ground_torque1_z	ground_torque2_x	ground_torque2_y	ground_torque2_z	
17.20326600000000	-45.67117800000000	807.82845999999995	57.08322100000000	0.12296200000000	0.00000000000000	0.10760500000000	-5.82546800000000	21.99827600000000	5.82399800000000	0.00000000000000	0.00000000000000	0.00000000000000	0.00000000000000	23.54841700000000	0.00000000000000	0.00000000000000	1.79653800000000	0.00000000000000	
17.20493600000000	-45.87059500000000	805.15705200000002	56.89709200000000	0.12230600000000	0.00000000000000	0.10754800000000	-7.01608100000000	28.00972500000000	7.17978200000000	0.32061900000000	0.00000000000000	-0.07571100000000	0.00000000000000	23.42380600000000	0.00000000000000	0.00000000000000	4.00559300000000	0.00000000000000	
17.20660200000000	-46.07382100000000	802.35715300000004	56.68368500000000	0.12166900000000	0.00000000000000	0.10748600000000	-8.16511000000000	34.39548600000000	8.54983600000000	0.32814900000000	0.00000000000000	-0.07605400000000	0.00000000000000	23.29714400000000	0.00000000000000	0.00000000000000	4.86894800000000	0.00000000000000	
17.20826800000000	-46.28148700000000	799.42937500000005	56.44283000000000	0.12104900000000	0.00000000000000	0.10741900000000	-9.22703500000000	41.02643600000000	9.89220200000000	0.33502900000000	0.00000000000000	-0.07638400000000	0.00000000000000	23.16861700000000	0.00000000000000	0.00000000000000	5.74194500000000	0.00000000000000	
17.20994000000000	-46.49420300000000	796.37439300000005	56.17441400000000	0.12044600000000	0.00000000000000	0.10734600000000	-10.16108400000000	47.77712700000000	11.16791600000000	0.34133700000000	0.00000000000000	-0.07670500000000	0.00000000000000	23.03840600000000	0.00000000000000	0.00000000000000	6.60041100000000	0.00000000000000	
17.21160200000000	-46.71255400000000	793.19293700000003	55.87838100000000	0.11986000000000	0.00000000000000	0.10726800000000	-10.93390000000000	54.53525500000000	12.34363300000000	0.34713400000000	0.00000000000000	-0.07701900000000	0.00000000000000	22.90668800000000	0.00000000000000	0.00000000000000	7.42254100000000	0.00000000000000	
17.21326800000000	-46.93709300000000	789.88578900000005	55.55473400000000	0.11929000000000	0.00000000000000	0.10718400000000	-11.52131500000000	61.20892900000000	13.39348600000000	0.35247400000000	0.00000000000000	-0.07732800000000	0.00000000000000	22.77362800000000	0.00000000000000	0.00000000000000	8.19025000000000	0.00000000000000	
17.21494000000000	-47.16834000000000	786.45376899999997	55.20352900000000	0.11873500000000	0.00000000000000	0.10709500000000	-11.90913200000000	67.73122800000000	14.30008500000000	0.35740100000000	0.00000000000000	-0.07763300000000	0.00000000000000	22.63938600000000	0.00000000000000	0.00000000000000	8.89004700000000	0.00000000000000	
17.21660600000000	-47.40677900000000	782.89773000000002	54.82488100000000	0.11819600000000	0.00000000000000	0.10700000000000	-12.09297900000000	74.06199599999999	15.05466300000000	0.36195200000000	0.00000000000000	-0.07793700000000	0.00000000000000	22.50411300000000	0.00000000000000	0.00000000000000	9.51339300000000	0.00000000000000	
17.21827200000000	-47.65284800000000	779.21855200000005	54.41895900000000	0.11767100000000	0.00000000000000	0.10690000000000	-12.07738300000000	80.18713200000001	15.65649700000000	0.36615900000000	0.00000000000000	-0.07824000000000	0.00000000000000	22.36795000000000	0.00000000000000	0.00000000000000	10.05659600000000	0.00000000000000	
17.21994000000000	-47.90694200000000	775.41712800000005	53.98598700000000	0.11716000000000	0.00000000000000	0.10679400000000	-11.87427400000000	86.11586000000000	16.11176300000000	0.37005000000000	0.00000000000000	-0.07854200000000	0.00000000000000	22.23102900000000	0.00000000000000	0.00000000000000	10.52031500000000	0.00000000000000	
17.22159900000000	-48.16940500000000	771.49436600000001	53.52624500000000	0.11666100000000	0.00000000000000	0.10668300000000	-11.50112900000000	91.87653899999999	16.43202600000000	0.37364800000000	0.00000000000000	-0.07884600000000	0.00000000000000	22.09347100000000	0.00000000000000	0.00000000000000	10.90878900000000	0.00000000000000	
17.22326900000000	-48.44052700000000	767.45117400000004	53.04006200000000	0.11617400000000	0.00000000000000	0.10656600000000	-10.97898500000000	97.51162400000000	16.63254000000000	0.37697600000000	0.00000000000000	-0.07915000000000	0.00000000000000	21.95538700000000	0.00000000000000	0.00000000000000	11.22890300000000	0.00000000000000	
17.22493200000000	-48.72054000000000	763.28845799999999	52.52782100000000	0.11569800000000	0.00000000000000	0.10644400000000	-10.33049800000000	103.07233900000000	16.73055500000000	0.38005100000000	0.00000000000000	-0.07945600000000	0.00000000000000	21.81687700000000	0.00000000000000	0.00000000000000	11.48918800000000	0.00000000000000	
17.22660700000000	-49.00961400000000	759.00711400000000	51.98995600000000	0.11523100000000	0.00000000000000	0.10631600000000	-9.57820300000000	108.61354600000000	16.74373500000000	0.38289100000000	0.00000000000000	-0.07976400000000	0.00000000000000	21.67802900000000	0.00000000000000	0.00000000000000	11.69886600000000	0.00000000000000	
17.22827200000000	-49.30785400000000	754.60802400000000	51.42694600000000	0.11477200000000	0.00000000000000	0.10618300000000	-8.74307300000000	114.18918200000000	16.68883100000000	0.38551100000000	0.00000000000000	-0.08007400000000	0.00000000000000	21.53892100000000	0.00000000000000	0.00000000000000	11.86700500000000	0.00000000000000	
17.22993800000000	-49.61529700000000	750.09204799999998	50.83932000000000	0.11432200000000	0.00000000000000	0.10604500000000	-7.84344800000000	119.84852800000000	16.58063400000000	0.38792400000000	0.00000000000000	-0.08038600000000	0.00000000000000	21.39961800000000	0.00000000000000	0.00000000000000	12.00182500000000	0.00000000000000	
17.23160300000000	-49.93190700000000	745.46002199999998	50.22765200000000	0.11387700000000	0.00000000000000	0.10590100000000	-6.89434100000000	125.63345500000000	16.43127200000000	0.39014200000000	0.00000000000000	-0.08070000000000	0.00000000000000	21.26017300000000	0.00000000000000	0.00000000000000	12.11020100000000	0.00000000000000	
17.23327100000000	-50.25757200000000	740.71275400000002	49.59255900000000	0.11343800000000	0.00000000000000	0.10575200000000	-5.90711600000000	131.57667200000000	16.24982100000000	0.39217600000000	0.00000000000000	-0.08101600000000	0.00000000000000	21.12062900000000	0.00000000000000	0.00000000000000	12.19735800000000	0.00000000000000	
17.23493900000000	-50.59210300000000	735.85101699999996	48.93469800000000	0.11300300000000	0.00000000000000	0.10559800000000	-4.88949200000000	137.70094000000000	16.04221700000000	0.39403800000000	0.00000000000000	-0.08133400000000	0.00000000000000	20.98101600000000	0.00000000000000	0.00000000000000	12.26675000000000	0.00000000000000	
17.23660400000000	-50.93523300000000	730.87554899999998	48.25476700000000	0.11257000000000	0.00000000000000	0.10543900000000	-3.84581600000000	144.01914099999999	15.81141300000000	0.39573700000000	0.00000000000000	-0.08165400000000	0.00000000000000	20.84135000000000	0.00000000000000	0.00000000000000	12.32009900000000	0.00000000000000	
17.23826500000000	-51.28660700000000	725.78704900000002	47.55350200000000	0.11213900000000	0.00000000000000	0.10527500000000	-2.77753200000000	150.53501700000001	15.55773500000000	0.39728000000000	0.00000000000000	-0.08197600000000	0.00000000000000	20.70163900000000	0.00000000000000	0.00000000000000	12.35756400000000	0.00000000000000	
17.23994000000000	-51.64579100000000	720.58617800000002	46.83167300000000	0.11170900000000	0.00000000000000	0.10510700000000	-1.68378000000000	157.24442900000000	15.27936300000000	0.39867800000000	0.00000000000000	-0.08230000000000	0.00000000000000	20.56187600000000	0.00000000000000	0.00000000000000	12.37800500000000	0.00000000000000	
17.24160500000000	-52.01226300000000	715.27355399999999	46.09008500000000	0.11127800000000	0.00000000000000	0.10493400000000	-0.56205400000000	164.13692499999999	14.97288600000000	0.39993700000000	0.00000000000000	-0.08262500000000	0.00000000000000	20.42204400000000	0.00000000000000	0.00000000000000	12.37929400000000	0.00000000000000	
17.24326700000000	-52.38541300000000	709.84975299999996	45.32957100000000	0.11084500000000	0.00000000000000	0.10475600000000	0.59114800000000	171.19744700000001	14.63387700000000	0.40106400000000	0.00000000000000	-0.08295200000000	0.00000000000000	20.28211400000000	0.00000000000000	0.00000000000000	12.35865600000000	0.00000000000000	
17.24493500000000	-52.76454600000000	704.31531099999995	44.55099600000000	0.11040900000000	0.00000000000000	0.10457400000000	1.77971300000000	178.40804000000000	14.25743000000000	0.40206700000000	0.00000000000000	-0.08327900000000	0.00000000000000	20.14204600000000	0.00000000000000	0.00000000000000	12.31299700000000	0.00000000000000	
17.24659900000000	-53.14887600000000	698.67072299999995	43.75525000000000	0.10996800000000	0.00000000000000	0.10438700000000	3.00739300000000	185.74940799999999	13.83864700000000	0.40295200000000	0.00000000000000	-0.08360700000000	0.00000000000000	20.00178800000000	0.00000000000000	0.00000000000000	12.23919900000000	0.00000000000000	
17.24826600000000	-53.53753300000000	692.91644799999995	42.94324700000000	0.10952300000000	0.00000000000000	0.10419700000000	4.27739300000000	193.20226400000001	13.37302900000000	0.40372400000000	0.00000000000000	-0.08393600000000	0.00000000000000	19.86127800000000	0.00000000000000	0.00000000000000	12.13436900000000	0.00000000000000	
17.24993800000000	-53.92955900000000	687.05291099999999	42.11592400000000	0.10907200000000	0.00000000000000	0.10400300000000	5.59207100000000	200.74839100000000	12.85677100000000	0.40439100000000	0.00000000000000	-0.08426500000000	0.00000000000000	19.72044300000000	0.00000000000000	0.00000000000000	11.99603000000000	0.00000000000000	
17.25160300000000	-54.32390800000000	681.08050800000001	41.27423600000000	0.10861300000000	0.00000000000000	0.10380500000000	6.95276200000000	208.37140600000001	12.28696400000000	0.40495600000000	0.00000000000000	-0.08459400000000	0.00000000000000	19.57920100000000	0.00000000000000	0.00000000000000	11.82225000000000	0.00000000000000	
17.25326900000000	-54.71945300000000	674.99961199999996	40.41915900000000	0.10814600000000	0.00000000000000	0.10360300000000	8.35970200000000	216.05722600000001	11.66168700000000	0.40542600000000	0.00000000000000	-0.08492300000000	0.00000000000000	19.43745600000000	0.00000000000000	0.00000000000000	11.61171000000000	0.00000000000000	
17.25493700000000	-55.11498300000000	668.81057999999996	39.55168000000000	0.10767100000000	0.00000000000000	0.10339800000000	9.81205100000000	223.79425800000001	10.98003000000000	0.40580500000000	0.00000000000000	-0.08525100000000	0.00000000000000	19.29510600000000	0.00000000000000	0.00000000000000	11.36372500000000	0.00000000000000	
